# xmcd
#
# Track frame offsets:
#   150
#   16723
#   30526
#   44318
#   72727
#   90638
#   103736
#   120743
#   141307
#   152834
#   169375
#   187127
#   200441
#   214265
#   232087
#   248444
#
# Disc length: 3542 seconds
#
# Revision: 0
# Processed by: cddbd v1.5.2PL0 Copyright (c) Steve Scherf et al.
# Submitted via: GXTranscoder 2.0.1939
#
DISCID=e80dd410
DTITLE=The Carpenters - Just like...the Carpenters
DYEAR=2002
DGENRE=Country
TTITLE0=Jimbalaya on the bayou
TTITLE1=Top of the world
TTITLE2=We've only just begun
TTITLE3=Calling occupants of interplanetary crafts
TTITLE4=Yesterday once more
TTITLE5=Please Mr. Postman
TTITLE6=I won't last a day without you
TTITLE7=Solitaire
TTITLE8=For all we know
TTITLE9=Close to you
TTITLE10=Goodbye to love
TTITLE11=Sweet sweet smile
TTITLE12=There's a kind of hush
TTITLE13=Only yesterday
TTITLE14=Rainy days and Mondays
TTITLE15=Superstar
EXTD=
EXTT0=
EXTT1=
EXTT2=
EXTT3=
EXTT4=
EXTT5=
EXTT6=
EXTT7=
EXTT8=
EXTT9=
EXTT10=
EXTT11=
EXTT12=
EXTT13=
EXTT14=
EXTT15=
PLAYORDER=
